<?xml version="1.0" encoding="utf-8"?>
<!-- Svg Vector Icons : http://www.onlinewebfonts.com/icon -->
<!DOCTYPE svg PUBLIC "-//W3C//DTD SVG 1.1//EN" "http://www.w3.org/Graphics/SVG/1.1/DTD/svg11.dtd">
<svg version="1.1" xmlns="http://www.w3.org/2000/svg" xmlns:xlink="http://www.w3.org/1999/xlink" x="0px" y="0px" viewBox="0 0 1000 1000" enable-background="new 0 0 1000 1000" xml:space="preserve">
<metadata> Svg Vector Icons : http://www.onlinewebfonts.com/icon </metadata>
<g><path d="M622.5,132.5h20.4c49.4,0,90.6,35.1,100.1,81.7h22.4c56.4,0,102.2,45.6,102.2,102.2v571.4c0,56.5-45.7,102.2-102.2,102.2H234.7c-56.4,0-102.2-45.6-102.2-102.2V316.4c0-56.5,45.7-102.2,102.2-102.2H257l0,0c9.5-46.6,50.6-81.7,100.1-81.7h20.4C377.5,64.8,432.3,10,500,10C567.7,10,622.5,64.8,622.5,132.5z M255,255h-20.5c-33.9,0-61.2,27.4-61.2,61.3v571.6c0,33.9,27.4,61.3,61.2,61.3h531c33.9,0,61.2-27.4,61.2-61.3V316.3c0-33.9-27.4-61.3-61.2-61.3H745v81.7H255V255L255,255z M255,418.3h122.5v122.5H255V418.3z M255,581.7h122.5v122.5H255V581.7z M255,745h122.5v122.5H255V745z M500,193.8c33.8,0,61.3-27.4,61.3-61.3c0-33.8-27.4-61.3-61.3-61.3c-33.8,0-61.3,27.4-61.3,61.3C438.8,166.3,466.2,193.8,500,193.8z M459.2,785.8H745v40.8H459.2V785.8z M459.2,622.5H745v40.8H459.2V622.5z M459.2,459.2H745V500H459.2V459.2z M295.8,785.8h40.8v40.8h-40.8V785.8z M295.8,622.5h40.8v40.8h-40.8V622.5z M295.8,459.2h40.8V500h-40.8V459.2z"/></g>
</svg>